<mxfile host="Electron" agent="Mozilla/5.0 (Windows NT 10.0; Win64; x64) AppleWebKit/537.36 (KHTML, like Gecko) draw.io/27.0.9 Chrome/134.0.6998.205 Electron/35.4.0 Safari/537.36" version="27.0.9">
  <diagram name="Page-1" id="RMuuJCCi9sDhubjygd_P">
    <mxGraphModel dx="677" dy="572" grid="1" gridSize="10" guides="0" tooltips="1" connect="1" arrows="1" fold="1" page="0" pageScale="1" pageWidth="850" pageHeight="1100" math="0" shadow="0">
      <root>
        <mxCell id="0" />
        <mxCell id="1" parent="0" />
        <mxCell id="S-CoqvPqYbhsDH9ido7L-1" value="" style="shape=table;startSize=0;container=1;collapsible=0;childLayout=tableLayout;fontSize=16;" vertex="1" parent="1">
          <mxGeometry x="50" y="190" width="390" height="70" as="geometry" />
        </mxCell>
        <mxCell id="S-CoqvPqYbhsDH9ido7L-2" value="" style="shape=tableRow;horizontal=0;startSize=0;swimlaneHead=0;swimlaneBody=0;strokeColor=inherit;top=0;left=0;bottom=0;right=0;collapsible=0;dropTarget=0;fillColor=none;points=[[0,0.5],[1,0.5]];portConstraint=eastwest;fontSize=16;" vertex="1" parent="S-CoqvPqYbhsDH9ido7L-1">
          <mxGeometry width="390" height="70" as="geometry" />
        </mxCell>
        <mxCell id="S-CoqvPqYbhsDH9ido7L-3" value="&lt;font style=&quot;color: rgb(14, 255, 6);&quot;&gt;5&lt;/font&gt;" style="shape=partialRectangle;html=1;whiteSpace=wrap;connectable=0;strokeColor=inherit;overflow=hidden;fillColor=none;top=0;left=0;bottom=0;right=0;pointerEvents=1;fontSize=16;" vertex="1" parent="S-CoqvPqYbhsDH9ido7L-2">
          <mxGeometry width="66" height="70" as="geometry">
            <mxRectangle width="66" height="70" as="alternateBounds" />
          </mxGeometry>
        </mxCell>
        <mxCell id="S-CoqvPqYbhsDH9ido7L-4" value="&lt;font style=&quot;color: rgb(14, 255, 6);&quot;&gt;4&lt;/font&gt;" style="shape=partialRectangle;html=1;whiteSpace=wrap;connectable=0;strokeColor=inherit;overflow=hidden;fillColor=none;top=0;left=0;bottom=0;right=0;pointerEvents=1;fontSize=16;" vertex="1" parent="S-CoqvPqYbhsDH9ido7L-2">
          <mxGeometry x="66" width="64" height="70" as="geometry">
            <mxRectangle width="64" height="70" as="alternateBounds" />
          </mxGeometry>
        </mxCell>
        <mxCell id="S-CoqvPqYbhsDH9ido7L-5" value="&lt;font style=&quot;color: rgb(255, 255, 102);&quot;&gt;3&lt;/font&gt;" style="shape=partialRectangle;html=1;whiteSpace=wrap;connectable=0;strokeColor=inherit;overflow=hidden;fillColor=none;top=0;left=0;bottom=0;right=0;pointerEvents=1;fontSize=16;" vertex="1" parent="S-CoqvPqYbhsDH9ido7L-2">
          <mxGeometry x="130" width="65" height="70" as="geometry">
            <mxRectangle width="65" height="70" as="alternateBounds" />
          </mxGeometry>
        </mxCell>
        <mxCell id="S-CoqvPqYbhsDH9ido7L-18" value="&lt;font style=&quot;color: rgb(255, 255, 102);&quot;&gt;2&lt;/font&gt;" style="shape=partialRectangle;html=1;whiteSpace=wrap;connectable=0;strokeColor=inherit;overflow=hidden;fillColor=none;top=0;left=0;bottom=0;right=0;pointerEvents=1;fontSize=16;" vertex="1" parent="S-CoqvPqYbhsDH9ido7L-2">
          <mxGeometry x="195" width="66" height="70" as="geometry">
            <mxRectangle width="66" height="70" as="alternateBounds" />
          </mxGeometry>
        </mxCell>
        <mxCell id="S-CoqvPqYbhsDH9ido7L-21" value="&lt;font style=&quot;color: rgb(255, 0, 0);&quot;&gt;1&lt;/font&gt;" style="shape=partialRectangle;html=1;whiteSpace=wrap;connectable=0;strokeColor=inherit;overflow=hidden;fillColor=none;top=0;left=0;bottom=0;right=0;pointerEvents=1;fontSize=16;" vertex="1" parent="S-CoqvPqYbhsDH9ido7L-2">
          <mxGeometry x="261" width="64" height="70" as="geometry">
            <mxRectangle width="64" height="70" as="alternateBounds" />
          </mxGeometry>
        </mxCell>
        <mxCell id="S-CoqvPqYbhsDH9ido7L-24" value="&lt;font style=&quot;color: rgb(255, 0, 0);&quot;&gt;0&lt;/font&gt;" style="shape=partialRectangle;html=1;whiteSpace=wrap;connectable=0;strokeColor=inherit;overflow=hidden;fillColor=none;top=0;left=0;bottom=0;right=0;pointerEvents=1;fontSize=16;" vertex="1" parent="S-CoqvPqYbhsDH9ido7L-2">
          <mxGeometry x="325" width="65" height="70" as="geometry">
            <mxRectangle width="65" height="70" as="alternateBounds" />
          </mxGeometry>
        </mxCell>
        <mxCell id="S-CoqvPqYbhsDH9ido7L-30" value="" style="endArrow=none;dashed=1;html=1;rounded=0;entryX=-0.004;entryY=1.04;entryDx=0;entryDy=0;entryPerimeter=0;" edge="1" parent="1">
          <mxGeometry width="50" height="50" relative="1" as="geometry">
            <mxPoint x="50" y="397.2" as="sourcePoint" />
            <mxPoint x="50.43999999999994" y="259.99999999999994" as="targetPoint" />
          </mxGeometry>
        </mxCell>
        <mxCell id="S-CoqvPqYbhsDH9ido7L-31" value="" style="endArrow=none;dashed=1;html=1;rounded=0;entryX=-0.004;entryY=1.04;entryDx=0;entryDy=0;entryPerimeter=0;" edge="1" parent="1">
          <mxGeometry width="50" height="50" relative="1" as="geometry">
            <mxPoint x="180" y="400" as="sourcePoint" />
            <mxPoint x="180" y="260" as="targetPoint" />
          </mxGeometry>
        </mxCell>
        <mxCell id="S-CoqvPqYbhsDH9ido7L-32" value="" style="endArrow=none;dashed=1;html=1;rounded=0;entryX=-0.004;entryY=1.04;entryDx=0;entryDy=0;entryPerimeter=0;" edge="1" parent="1">
          <mxGeometry width="50" height="50" relative="1" as="geometry">
            <mxPoint x="310" y="400" as="sourcePoint" />
            <mxPoint x="310" y="260" as="targetPoint" />
          </mxGeometry>
        </mxCell>
        <mxCell id="S-CoqvPqYbhsDH9ido7L-33" value="" style="endArrow=none;dashed=1;html=1;rounded=0;entryX=-0.004;entryY=1.04;entryDx=0;entryDy=0;entryPerimeter=0;" edge="1" parent="1">
          <mxGeometry width="50" height="50" relative="1" as="geometry">
            <mxPoint x="440" y="400" as="sourcePoint" />
            <mxPoint x="440" y="260" as="targetPoint" />
          </mxGeometry>
        </mxCell>
        <mxCell id="S-CoqvPqYbhsDH9ido7L-34" value="&lt;font style=&quot;color: rgb(14, 255, 6);&quot;&gt;2&#39;b00:&lt;br&gt;sh1 &amp;lt;= r.addr[42:12]&lt;/font&gt;" style="text;html=1;align=center;verticalAlign=middle;resizable=0;points=[];autosize=1;strokeColor=none;fillColor=none;" vertex="1" parent="1">
          <mxGeometry x="50" y="270" width="130" height="40" as="geometry" />
        </mxCell>
        <mxCell id="S-CoqvPqYbhsDH9ido7L-35" value="&lt;font style=&quot;color: rgb(14, 255, 6);&quot;&gt;2&#39;b01:&lt;br&gt;sh1&amp;lt;=r.addr[58:28]&lt;/font&gt;" style="text;html=1;align=center;verticalAlign=middle;resizable=0;points=[];autosize=1;strokeColor=none;fillColor=none;" vertex="1" parent="1">
          <mxGeometry x="55" y="310" width="120" height="40" as="geometry" />
        </mxCell>
        <mxCell id="S-CoqvPqYbhsDH9ido7L-36" value="&lt;font style=&quot;&quot;&gt;2&#39;b00:&lt;br&gt;sh2 &amp;lt;= sh1[18:0]&lt;/font&gt;" style="text;html=1;align=center;verticalAlign=middle;resizable=0;points=[];autosize=1;strokeColor=none;fillColor=none;fontColor=#FFFF66;" vertex="1" parent="1">
          <mxGeometry x="190" y="270" width="110" height="40" as="geometry" />
        </mxCell>
        <mxCell id="S-CoqvPqYbhsDH9ido7L-37" value="&lt;font style=&quot;&quot;&gt;2&#39;b01:&lt;br&gt;sh2 &amp;lt;= sh1[22:4]&lt;/font&gt;" style="text;html=1;align=center;verticalAlign=middle;resizable=0;points=[];autosize=1;strokeColor=none;fillColor=none;fontColor=#FFFF66;" vertex="1" parent="1">
          <mxGeometry x="190" y="310" width="110" height="40" as="geometry" />
        </mxCell>
        <mxCell id="S-CoqvPqYbhsDH9ido7L-38" value="&lt;font style=&quot;&quot;&gt;2&#39;b10:&lt;br&gt;sh2 &amp;lt;= sh1[26:8]&lt;/font&gt;" style="text;html=1;align=center;verticalAlign=middle;resizable=0;points=[];autosize=1;strokeColor=none;fillColor=none;fontColor=#FFFF66;" vertex="1" parent="1">
          <mxGeometry x="190" y="350" width="110" height="40" as="geometry" />
        </mxCell>
        <mxCell id="S-CoqvPqYbhsDH9ido7L-39" value="&lt;font style=&quot;&quot;&gt;2&#39;b11:&lt;br&gt;sh2 &amp;lt;= sh[30:12]&lt;/font&gt;" style="text;html=1;align=center;verticalAlign=middle;resizable=0;points=[];autosize=1;strokeColor=none;fillColor=none;fontColor=#FFFF66;" vertex="1" parent="1">
          <mxGeometry x="190" y="390" width="110" height="40" as="geometry" />
        </mxCell>
        <mxCell id="S-CoqvPqYbhsDH9ido7L-40" value="&lt;font style=&quot;&quot;&gt;2&#39;b00:&lt;br&gt;result&amp;lt;= sh2[15:0]&lt;/font&gt;" style="text;html=1;align=center;verticalAlign=middle;resizable=0;points=[];autosize=1;strokeColor=none;fillColor=none;fontColor=#FF0000;" vertex="1" parent="1">
          <mxGeometry x="315" y="280" width="120" height="40" as="geometry" />
        </mxCell>
        <mxCell id="S-CoqvPqYbhsDH9ido7L-41" value="&lt;font style=&quot;&quot;&gt;2&#39;b01:&lt;br&gt;result&amp;lt;= sh2[16:1]&lt;/font&gt;" style="text;html=1;align=center;verticalAlign=middle;resizable=0;points=[];autosize=1;strokeColor=none;fillColor=none;fontColor=#FF0000;" vertex="1" parent="1">
          <mxGeometry x="315" y="320" width="120" height="40" as="geometry" />
        </mxCell>
        <mxCell id="S-CoqvPqYbhsDH9ido7L-42" value="&lt;font style=&quot;&quot;&gt;2&#39;b10:&lt;br&gt;result&amp;lt;= sh2[17:2]&lt;/font&gt;" style="text;html=1;align=center;verticalAlign=middle;resizable=0;points=[];autosize=1;strokeColor=none;fillColor=none;fontColor=#FF0000;" vertex="1" parent="1">
          <mxGeometry x="315" y="360" width="120" height="40" as="geometry" />
        </mxCell>
        <mxCell id="S-CoqvPqYbhsDH9ido7L-43" value="&lt;font style=&quot;&quot;&gt;2&#39;b11:&lt;br&gt;result&amp;lt;= sh2[18:3]&lt;/font&gt;" style="text;html=1;align=center;verticalAlign=middle;resizable=0;points=[];autosize=1;strokeColor=none;fillColor=none;fontColor=#FF0000;" vertex="1" parent="1">
          <mxGeometry x="315" y="400" width="120" height="40" as="geometry" />
        </mxCell>
        <mxCell id="S-CoqvPqYbhsDH9ido7L-44" value="r.addr" style="text;html=1;align=center;verticalAlign=middle;resizable=0;points=[];autosize=1;strokeColor=none;fillColor=none;" vertex="1" parent="1">
          <mxGeometry x="50" y="410" width="50" height="30" as="geometry" />
        </mxCell>
        <mxCell id="S-CoqvPqYbhsDH9ido7L-45" value="sh1" style="text;html=1;align=center;verticalAlign=middle;resizable=0;points=[];autosize=1;strokeColor=none;fillColor=none;" vertex="1" parent="1">
          <mxGeometry x="135" y="450" width="40" height="30" as="geometry" />
        </mxCell>
        <mxCell id="S-CoqvPqYbhsDH9ido7L-46" value="sh2" style="text;html=1;align=center;verticalAlign=middle;resizable=0;points=[];autosize=1;strokeColor=none;fillColor=none;" vertex="1" parent="1">
          <mxGeometry x="275" y="490" width="40" height="30" as="geometry" />
        </mxCell>
        <mxCell id="S-CoqvPqYbhsDH9ido7L-47" value="result" style="text;html=1;align=center;verticalAlign=middle;resizable=0;points=[];autosize=1;strokeColor=none;fillColor=none;" vertex="1" parent="1">
          <mxGeometry x="350" y="540" width="50" height="30" as="geometry" />
        </mxCell>
        <mxCell id="S-CoqvPqYbhsDH9ido7L-48" style="edgeStyle=orthogonalEdgeStyle;rounded=0;orthogonalLoop=1;jettySize=auto;html=1;entryX=-0.015;entryY=0.406;entryDx=0;entryDy=0;entryPerimeter=0;fontColor=#0EFF06;strokeColor=#0EFF06;" edge="1" parent="1" source="S-CoqvPqYbhsDH9ido7L-44" target="S-CoqvPqYbhsDH9ido7L-45">
          <mxGeometry relative="1" as="geometry">
            <Array as="points">
              <mxPoint x="75" y="462" />
            </Array>
          </mxGeometry>
        </mxCell>
        <mxCell id="S-CoqvPqYbhsDH9ido7L-49" style="edgeStyle=orthogonalEdgeStyle;rounded=0;orthogonalLoop=1;jettySize=auto;html=1;entryX=-0.029;entryY=0.5;entryDx=0;entryDy=0;entryPerimeter=0;strokeColor=#FFFF66;" edge="1" parent="1" source="S-CoqvPqYbhsDH9ido7L-45" target="S-CoqvPqYbhsDH9ido7L-46">
          <mxGeometry relative="1" as="geometry">
            <Array as="points">
              <mxPoint x="155" y="505" />
            </Array>
          </mxGeometry>
        </mxCell>
        <mxCell id="S-CoqvPqYbhsDH9ido7L-50" style="edgeStyle=orthogonalEdgeStyle;rounded=0;orthogonalLoop=1;jettySize=auto;html=1;entryX=0;entryY=0.333;entryDx=0;entryDy=0;entryPerimeter=0;strokeColor=#FF0000;" edge="1" parent="1" source="S-CoqvPqYbhsDH9ido7L-46" target="S-CoqvPqYbhsDH9ido7L-47">
          <mxGeometry relative="1" as="geometry">
            <Array as="points">
              <mxPoint x="300" y="550" />
            </Array>
          </mxGeometry>
        </mxCell>
        <mxCell id="S-CoqvPqYbhsDH9ido7L-52" value="sh1 [30:0&lt;span style=&quot;background-color: transparent; color: light-dark(rgb(0, 0, 0), rgb(255, 255, 255));&quot;&gt;]&lt;/span&gt;&lt;div&gt;&lt;br&gt;&lt;div&gt;&lt;span style=&quot;background-color: transparent; color: light-dark(rgb(0, 0, 0), rgb(255, 255, 255));&quot;&gt;sh2 [18:0]&lt;/span&gt;&lt;/div&gt;&lt;div&gt;&lt;span style=&quot;background-color: transparent; color: light-dark(rgb(0, 0, 0), rgb(255, 255, 255));&quot;&gt;&lt;br&gt;&lt;/span&gt;&lt;/div&gt;&lt;div&gt;&lt;span style=&quot;background-color: transparent; color: light-dark(rgb(0, 0, 0), rgb(255, 255, 255));&quot;&gt;result [15:0]&lt;/span&gt;&lt;/div&gt;&lt;/div&gt;" style="text;html=1;align=center;verticalAlign=middle;resizable=0;points=[];autosize=1;strokeColor=none;fillColor=none;" vertex="1" parent="1">
          <mxGeometry x="356" y="450" width="90" height="90" as="geometry" />
        </mxCell>
        <mxCell id="S-CoqvPqYbhsDH9ido7L-53" value="" style="shape=table;startSize=0;container=1;collapsible=0;childLayout=tableLayout;fontSize=16;" vertex="1" parent="1">
          <mxGeometry x="-240" y="685" width="918" height="70" as="geometry" />
        </mxCell>
        <mxCell id="S-CoqvPqYbhsDH9ido7L-54" value="" style="shape=tableRow;horizontal=0;startSize=0;swimlaneHead=0;swimlaneBody=0;strokeColor=inherit;top=0;left=0;bottom=0;right=0;collapsible=0;dropTarget=0;fillColor=none;points=[[0,0.5],[1,0.5]];portConstraint=eastwest;fontSize=16;" vertex="1" parent="S-CoqvPqYbhsDH9ido7L-53">
          <mxGeometry width="918" height="70" as="geometry" />
        </mxCell>
        <mxCell id="S-CoqvPqYbhsDH9ido7L-76" value="15th index" style="shape=partialRectangle;html=1;whiteSpace=wrap;connectable=0;strokeColor=inherit;overflow=hidden;fillColor=none;top=0;left=0;bottom=0;right=0;pointerEvents=1;fontSize=16;" vertex="1" parent="S-CoqvPqYbhsDH9ido7L-54">
          <mxGeometry width="66" height="70" as="geometry">
            <mxRectangle width="66" height="70" as="alternateBounds" />
          </mxGeometry>
        </mxCell>
        <mxCell id="S-CoqvPqYbhsDH9ido7L-75" style="shape=partialRectangle;html=1;whiteSpace=wrap;connectable=0;strokeColor=inherit;overflow=hidden;fillColor=none;top=0;left=0;bottom=0;right=0;pointerEvents=1;fontSize=16;" vertex="1" parent="S-CoqvPqYbhsDH9ido7L-54">
          <mxGeometry x="66" width="66" height="70" as="geometry">
            <mxRectangle width="66" height="70" as="alternateBounds" />
          </mxGeometry>
        </mxCell>
        <mxCell id="S-CoqvPqYbhsDH9ido7L-74" style="shape=partialRectangle;html=1;whiteSpace=wrap;connectable=0;strokeColor=inherit;overflow=hidden;fillColor=none;top=0;left=0;bottom=0;right=0;pointerEvents=1;fontSize=16;" vertex="1" parent="S-CoqvPqYbhsDH9ido7L-54">
          <mxGeometry x="132" width="66" height="70" as="geometry">
            <mxRectangle width="66" height="70" as="alternateBounds" />
          </mxGeometry>
        </mxCell>
        <mxCell id="S-CoqvPqYbhsDH9ido7L-73" value="..." style="shape=partialRectangle;html=1;whiteSpace=wrap;connectable=0;strokeColor=inherit;overflow=hidden;fillColor=none;top=0;left=0;bottom=0;right=0;pointerEvents=1;fontSize=16;" vertex="1" parent="S-CoqvPqYbhsDH9ido7L-54">
          <mxGeometry x="198" width="66" height="70" as="geometry">
            <mxRectangle width="66" height="70" as="alternateBounds" />
          </mxGeometry>
        </mxCell>
        <mxCell id="S-CoqvPqYbhsDH9ido7L-72" value="..." style="shape=partialRectangle;html=1;whiteSpace=wrap;connectable=0;strokeColor=inherit;overflow=hidden;fillColor=none;top=0;left=0;bottom=0;right=0;pointerEvents=1;fontSize=16;" vertex="1" parent="S-CoqvPqYbhsDH9ido7L-54">
          <mxGeometry x="264" width="66" height="70" as="geometry">
            <mxRectangle width="66" height="70" as="alternateBounds" />
          </mxGeometry>
        </mxCell>
        <mxCell id="S-CoqvPqYbhsDH9ido7L-71" value="..." style="shape=partialRectangle;html=1;whiteSpace=wrap;connectable=0;strokeColor=inherit;overflow=hidden;fillColor=none;top=0;left=0;bottom=0;right=0;pointerEvents=1;fontSize=16;" vertex="1" parent="S-CoqvPqYbhsDH9ido7L-54">
          <mxGeometry x="330" width="66" height="70" as="geometry">
            <mxRectangle width="66" height="70" as="alternateBounds" />
          </mxGeometry>
        </mxCell>
        <mxCell id="S-CoqvPqYbhsDH9ido7L-70" style="shape=partialRectangle;html=1;whiteSpace=wrap;connectable=0;strokeColor=inherit;overflow=hidden;fillColor=none;top=0;left=0;bottom=0;right=0;pointerEvents=1;fontSize=16;" vertex="1" parent="S-CoqvPqYbhsDH9ido7L-54">
          <mxGeometry x="396" width="66" height="70" as="geometry">
            <mxRectangle width="66" height="70" as="alternateBounds" />
          </mxGeometry>
        </mxCell>
        <mxCell id="S-CoqvPqYbhsDH9ido7L-69" style="shape=partialRectangle;html=1;whiteSpace=wrap;connectable=0;strokeColor=inherit;overflow=hidden;fillColor=none;top=0;left=0;bottom=0;right=0;pointerEvents=1;fontSize=16;" vertex="1" parent="S-CoqvPqYbhsDH9ido7L-54">
          <mxGeometry x="462" width="66" height="70" as="geometry">
            <mxRectangle width="66" height="70" as="alternateBounds" />
          </mxGeometry>
        </mxCell>
        <mxCell id="S-CoqvPqYbhsDH9ido7L-55" value="&lt;font style=&quot;&quot;&gt;1&lt;/font&gt;" style="shape=partialRectangle;html=1;whiteSpace=wrap;connectable=0;strokeColor=inherit;overflow=hidden;fillColor=none;top=0;left=0;bottom=0;right=0;pointerEvents=1;fontSize=16;fontColor=#0EFF06;" vertex="1" parent="S-CoqvPqYbhsDH9ido7L-54">
          <mxGeometry x="528" width="66" height="70" as="geometry">
            <mxRectangle width="66" height="70" as="alternateBounds" />
          </mxGeometry>
        </mxCell>
        <mxCell id="S-CoqvPqYbhsDH9ido7L-56" value="&lt;font style=&quot;&quot;&gt;1&lt;/font&gt;" style="shape=partialRectangle;html=1;whiteSpace=wrap;connectable=0;strokeColor=inherit;overflow=hidden;fillColor=none;top=0;left=0;bottom=0;right=0;pointerEvents=1;fontSize=16;fontColor=#0EFF06;" vertex="1" parent="S-CoqvPqYbhsDH9ido7L-54">
          <mxGeometry x="594" width="64" height="70" as="geometry">
            <mxRectangle width="64" height="70" as="alternateBounds" />
          </mxGeometry>
        </mxCell>
        <mxCell id="S-CoqvPqYbhsDH9ido7L-57" value="&lt;font style=&quot;&quot;&gt;1&lt;/font&gt;" style="shape=partialRectangle;html=1;whiteSpace=wrap;connectable=0;strokeColor=inherit;overflow=hidden;fillColor=none;top=0;left=0;bottom=0;right=0;pointerEvents=1;fontSize=16;fontColor=#0EFF06;" vertex="1" parent="S-CoqvPqYbhsDH9ido7L-54">
          <mxGeometry x="658" width="65" height="70" as="geometry">
            <mxRectangle width="65" height="70" as="alternateBounds" />
          </mxGeometry>
        </mxCell>
        <mxCell id="S-CoqvPqYbhsDH9ido7L-58" value="&lt;font style=&quot;&quot;&gt;1&lt;/font&gt;" style="shape=partialRectangle;html=1;whiteSpace=wrap;connectable=0;strokeColor=inherit;overflow=hidden;fillColor=none;top=0;left=0;bottom=0;right=0;pointerEvents=1;fontSize=16;fontColor=#0EFF06;" vertex="1" parent="S-CoqvPqYbhsDH9ido7L-54">
          <mxGeometry x="723" width="66" height="70" as="geometry">
            <mxRectangle width="66" height="70" as="alternateBounds" />
          </mxGeometry>
        </mxCell>
        <mxCell id="S-CoqvPqYbhsDH9ido7L-59" value="&lt;font style=&quot;&quot;&gt;1&lt;/font&gt;" style="shape=partialRectangle;html=1;whiteSpace=wrap;connectable=0;strokeColor=inherit;overflow=hidden;fillColor=none;top=0;left=0;bottom=0;right=0;pointerEvents=1;fontSize=16;fontColor=#0EFF06;" vertex="1" parent="S-CoqvPqYbhsDH9ido7L-54">
          <mxGeometry x="789" width="64" height="70" as="geometry">
            <mxRectangle width="64" height="70" as="alternateBounds" />
          </mxGeometry>
        </mxCell>
        <mxCell id="S-CoqvPqYbhsDH9ido7L-60" value="&lt;font style=&quot;&quot;&gt;1&lt;/font&gt;" style="shape=partialRectangle;html=1;whiteSpace=wrap;connectable=0;strokeColor=inherit;overflow=hidden;fillColor=none;top=0;left=0;bottom=0;right=0;pointerEvents=1;fontSize=16;fontColor=#0EFF06;" vertex="1" parent="S-CoqvPqYbhsDH9ido7L-54">
          <mxGeometry x="853" width="65" height="70" as="geometry">
            <mxRectangle width="65" height="70" as="alternateBounds" />
          </mxGeometry>
        </mxCell>
        <mxCell id="S-CoqvPqYbhsDH9ido7L-77" value="0" style="text;html=1;align=center;verticalAlign=middle;resizable=0;points=[];autosize=1;strokeColor=none;fillColor=none;" vertex="1" parent="1">
          <mxGeometry x="637" y="763" width="25" height="26" as="geometry" />
        </mxCell>
        <mxCell id="S-CoqvPqYbhsDH9ido7L-78" value="4" style="text;html=1;align=center;verticalAlign=middle;resizable=0;points=[];autosize=1;strokeColor=none;fillColor=none;" vertex="1" parent="1">
          <mxGeometry x="312" y="763" width="25" height="26" as="geometry" />
        </mxCell>
        <mxCell id="S-CoqvPqYbhsDH9ido7L-79" value="&lt;font style=&quot;font-size: 19px;&quot;&gt;m = &quot;001f&quot; as default&lt;/font&gt;" style="text;html=1;align=center;verticalAlign=middle;resizable=0;points=[];autosize=1;strokeColor=none;fillColor=none;" vertex="1" parent="1">
          <mxGeometry x="119" y="623" width="200" height="40" as="geometry" />
        </mxCell>
        <mxCell id="S-CoqvPqYbhsDH9ido7L-80" value="" style="shape=table;startSize=0;container=1;collapsible=0;childLayout=tableLayout;fontSize=16;" vertex="1" parent="1">
          <mxGeometry x="-241" y="805" width="918" height="70" as="geometry" />
        </mxCell>
        <mxCell id="S-CoqvPqYbhsDH9ido7L-81" value="" style="shape=tableRow;horizontal=0;startSize=0;swimlaneHead=0;swimlaneBody=0;strokeColor=inherit;top=0;left=0;bottom=0;right=0;collapsible=0;dropTarget=0;fillColor=none;points=[[0,0.5],[1,0.5]];portConstraint=eastwest;fontSize=16;" vertex="1" parent="S-CoqvPqYbhsDH9ido7L-80">
          <mxGeometry width="918" height="70" as="geometry" />
        </mxCell>
        <mxCell id="S-CoqvPqYbhsDH9ido7L-82" value="15th index" style="shape=partialRectangle;html=1;whiteSpace=wrap;connectable=0;strokeColor=inherit;overflow=hidden;fillColor=none;top=0;left=0;bottom=0;right=0;pointerEvents=1;fontSize=16;" vertex="1" parent="S-CoqvPqYbhsDH9ido7L-81">
          <mxGeometry width="66" height="70" as="geometry">
            <mxRectangle width="66" height="70" as="alternateBounds" />
          </mxGeometry>
        </mxCell>
        <mxCell id="S-CoqvPqYbhsDH9ido7L-83" style="shape=partialRectangle;html=1;whiteSpace=wrap;connectable=0;strokeColor=inherit;overflow=hidden;fillColor=none;top=0;left=0;bottom=0;right=0;pointerEvents=1;fontSize=16;" vertex="1" parent="S-CoqvPqYbhsDH9ido7L-81">
          <mxGeometry x="66" width="66" height="70" as="geometry">
            <mxRectangle width="66" height="70" as="alternateBounds" />
          </mxGeometry>
        </mxCell>
        <mxCell id="S-CoqvPqYbhsDH9ido7L-84" style="shape=partialRectangle;html=1;whiteSpace=wrap;connectable=0;strokeColor=inherit;overflow=hidden;fillColor=none;top=0;left=0;bottom=0;right=0;pointerEvents=1;fontSize=16;" vertex="1" parent="S-CoqvPqYbhsDH9ido7L-81">
          <mxGeometry x="132" width="66" height="70" as="geometry">
            <mxRectangle width="66" height="70" as="alternateBounds" />
          </mxGeometry>
        </mxCell>
        <mxCell id="S-CoqvPqYbhsDH9ido7L-85" value="..." style="shape=partialRectangle;html=1;whiteSpace=wrap;connectable=0;strokeColor=inherit;overflow=hidden;fillColor=none;top=0;left=0;bottom=0;right=0;pointerEvents=1;fontSize=16;" vertex="1" parent="S-CoqvPqYbhsDH9ido7L-81">
          <mxGeometry x="198" width="66" height="70" as="geometry">
            <mxRectangle width="66" height="70" as="alternateBounds" />
          </mxGeometry>
        </mxCell>
        <mxCell id="S-CoqvPqYbhsDH9ido7L-86" value="1" style="shape=partialRectangle;html=1;whiteSpace=wrap;connectable=0;strokeColor=inherit;overflow=hidden;fillColor=none;top=0;left=0;bottom=0;right=0;pointerEvents=1;fontSize=16;fontColor=#FF0000;" vertex="1" parent="S-CoqvPqYbhsDH9ido7L-81">
          <mxGeometry x="264" width="66" height="70" as="geometry">
            <mxRectangle width="66" height="70" as="alternateBounds" />
          </mxGeometry>
        </mxCell>
        <mxCell id="S-CoqvPqYbhsDH9ido7L-87" value="1" style="shape=partialRectangle;html=1;whiteSpace=wrap;connectable=0;strokeColor=inherit;overflow=hidden;fillColor=none;top=0;left=0;bottom=0;right=0;pointerEvents=1;fontSize=16;fontColor=#FF0000;" vertex="1" parent="S-CoqvPqYbhsDH9ido7L-81">
          <mxGeometry x="330" width="66" height="70" as="geometry">
            <mxRectangle width="66" height="70" as="alternateBounds" />
          </mxGeometry>
        </mxCell>
        <mxCell id="S-CoqvPqYbhsDH9ido7L-88" value="1" style="shape=partialRectangle;html=1;whiteSpace=wrap;connectable=0;strokeColor=inherit;overflow=hidden;fillColor=none;top=0;left=0;bottom=0;right=0;pointerEvents=1;fontSize=16;fontColor=#FF0000;" vertex="1" parent="S-CoqvPqYbhsDH9ido7L-81">
          <mxGeometry x="396" width="66" height="70" as="geometry">
            <mxRectangle width="66" height="70" as="alternateBounds" />
          </mxGeometry>
        </mxCell>
        <mxCell id="S-CoqvPqYbhsDH9ido7L-89" value="1" style="shape=partialRectangle;html=1;whiteSpace=wrap;connectable=0;strokeColor=inherit;overflow=hidden;fillColor=none;top=0;left=0;bottom=0;right=0;pointerEvents=1;fontSize=16;fontColor=#FF0000;" vertex="1" parent="S-CoqvPqYbhsDH9ido7L-81">
          <mxGeometry x="462" width="66" height="70" as="geometry">
            <mxRectangle width="66" height="70" as="alternateBounds" />
          </mxGeometry>
        </mxCell>
        <mxCell id="S-CoqvPqYbhsDH9ido7L-90" value="&lt;font style=&quot;&quot;&gt;1&lt;/font&gt;" style="shape=partialRectangle;html=1;whiteSpace=wrap;connectable=0;strokeColor=inherit;overflow=hidden;fillColor=none;top=0;left=0;bottom=0;right=0;pointerEvents=1;fontSize=16;fontColor=#0EFF06;" vertex="1" parent="S-CoqvPqYbhsDH9ido7L-81">
          <mxGeometry x="528" width="66" height="70" as="geometry">
            <mxRectangle width="66" height="70" as="alternateBounds" />
          </mxGeometry>
        </mxCell>
        <mxCell id="S-CoqvPqYbhsDH9ido7L-91" value="&lt;font style=&quot;&quot;&gt;1&lt;/font&gt;" style="shape=partialRectangle;html=1;whiteSpace=wrap;connectable=0;strokeColor=inherit;overflow=hidden;fillColor=none;top=0;left=0;bottom=0;right=0;pointerEvents=1;fontSize=16;fontColor=#0EFF06;" vertex="1" parent="S-CoqvPqYbhsDH9ido7L-81">
          <mxGeometry x="594" width="64" height="70" as="geometry">
            <mxRectangle width="64" height="70" as="alternateBounds" />
          </mxGeometry>
        </mxCell>
        <mxCell id="S-CoqvPqYbhsDH9ido7L-92" value="&lt;font style=&quot;&quot;&gt;1&lt;/font&gt;" style="shape=partialRectangle;html=1;whiteSpace=wrap;connectable=0;strokeColor=inherit;overflow=hidden;fillColor=none;top=0;left=0;bottom=0;right=0;pointerEvents=1;fontSize=16;fontColor=#0EFF06;" vertex="1" parent="S-CoqvPqYbhsDH9ido7L-81">
          <mxGeometry x="658" width="65" height="70" as="geometry">
            <mxRectangle width="65" height="70" as="alternateBounds" />
          </mxGeometry>
        </mxCell>
        <mxCell id="S-CoqvPqYbhsDH9ido7L-93" value="&lt;font style=&quot;&quot;&gt;1&lt;/font&gt;" style="shape=partialRectangle;html=1;whiteSpace=wrap;connectable=0;strokeColor=inherit;overflow=hidden;fillColor=none;top=0;left=0;bottom=0;right=0;pointerEvents=1;fontSize=16;fontColor=#0EFF06;" vertex="1" parent="S-CoqvPqYbhsDH9ido7L-81">
          <mxGeometry x="723" width="66" height="70" as="geometry">
            <mxRectangle width="66" height="70" as="alternateBounds" />
          </mxGeometry>
        </mxCell>
        <mxCell id="S-CoqvPqYbhsDH9ido7L-94" value="&lt;font style=&quot;&quot;&gt;1&lt;/font&gt;" style="shape=partialRectangle;html=1;whiteSpace=wrap;connectable=0;strokeColor=inherit;overflow=hidden;fillColor=none;top=0;left=0;bottom=0;right=0;pointerEvents=1;fontSize=16;fontColor=#0EFF06;" vertex="1" parent="S-CoqvPqYbhsDH9ido7L-81">
          <mxGeometry x="789" width="64" height="70" as="geometry">
            <mxRectangle width="64" height="70" as="alternateBounds" />
          </mxGeometry>
        </mxCell>
        <mxCell id="S-CoqvPqYbhsDH9ido7L-95" value="&lt;font style=&quot;&quot;&gt;1&lt;/font&gt;" style="shape=partialRectangle;html=1;whiteSpace=wrap;connectable=0;strokeColor=inherit;overflow=hidden;fillColor=none;top=0;left=0;bottom=0;right=0;pointerEvents=1;fontSize=16;fontColor=#0EFF06;" vertex="1" parent="S-CoqvPqYbhsDH9ido7L-81">
          <mxGeometry x="853" width="65" height="70" as="geometry">
            <mxRectangle width="65" height="70" as="alternateBounds" />
          </mxGeometry>
        </mxCell>
        <mxCell id="S-CoqvPqYbhsDH9ido7L-96" value="0" style="text;html=1;align=center;verticalAlign=middle;resizable=0;points=[];autosize=1;strokeColor=none;fillColor=none;" vertex="1" parent="1">
          <mxGeometry x="640" y="886" width="25" height="26" as="geometry" />
        </mxCell>
        <mxCell id="S-CoqvPqYbhsDH9ido7L-97" value="4" style="text;html=1;align=center;verticalAlign=middle;resizable=0;points=[];autosize=1;strokeColor=none;fillColor=none;" vertex="1" parent="1">
          <mxGeometry x="310" y="886" width="25" height="26" as="geometry" />
        </mxCell>
        <mxCell id="S-CoqvPqYbhsDH9ido7L-100" value="5" style="text;html=1;align=center;verticalAlign=middle;resizable=0;points=[];autosize=1;strokeColor=none;fillColor=none;" vertex="1" parent="1">
          <mxGeometry x="240" y="759" width="30" height="30" as="geometry" />
        </mxCell>
        <mxCell id="S-CoqvPqYbhsDH9ido7L-101" value="15" style="text;html=1;align=center;verticalAlign=middle;resizable=0;points=[];autosize=1;strokeColor=none;fillColor=none;" vertex="1" parent="1">
          <mxGeometry x="-225" y="759" width="40" height="30" as="geometry" />
        </mxCell>
        <mxCell id="S-CoqvPqYbhsDH9ido7L-102" value="15" style="text;html=1;align=center;verticalAlign=middle;resizable=0;points=[];autosize=1;strokeColor=none;fillColor=none;" vertex="1" parent="1">
          <mxGeometry x="-225" y="886" width="40" height="30" as="geometry" />
        </mxCell>
        <mxCell id="S-CoqvPqYbhsDH9ido7L-103" value="5" style="text;html=1;align=center;verticalAlign=middle;resizable=0;points=[];autosize=1;strokeColor=none;fillColor=none;" vertex="1" parent="1">
          <mxGeometry x="240" y="884" width="30" height="30" as="geometry" />
        </mxCell>
        <mxCell id="S-CoqvPqYbhsDH9ido7L-104" value="8" style="text;html=1;align=center;verticalAlign=middle;resizable=0;points=[];autosize=1;strokeColor=none;fillColor=none;" vertex="1" parent="1">
          <mxGeometry x="40" y="884" width="30" height="30" as="geometry" />
        </mxCell>
        <mxCell id="S-CoqvPqYbhsDH9ido7L-105" value="&lt;div style=&quot;color: rgb(212, 212, 212); font-family: Consolas, &amp;quot;Courier New&amp;quot;, monospace; font-size: 14px; line-height: 19px; white-space-collapse: preserve;&quot;&gt;&lt;span&gt;&lt;span style=&quot;color: rgb(200, 200, 200);&quot;&gt;r&lt;/span&gt;.&lt;span style=&quot;color: rgb(200, 200, 200);&quot;&gt;mask_size = 8&lt;/span&gt;&lt;/span&gt;&lt;/div&gt;" style="text;html=1;align=center;verticalAlign=middle;resizable=0;points=[];autosize=1;strokeColor=none;fillColor=none;" vertex="1" parent="1">
          <mxGeometry x="-6" y="923" width="133" height="31" as="geometry" />
        </mxCell>
        <mxCell id="S-CoqvPqYbhsDH9ido7L-106" value="&lt;span style=&quot;background-color: light-dark(#ffffff, var(--ge-dark-color, #121212));&quot;&gt;it will start masking with &quot;1&#39;b1&quot; from index no 5 and will progress till the index &quot;r.mask_size&quot;&amp;nbsp;&lt;/span&gt;" style="text;html=1;align=center;verticalAlign=middle;resizable=0;points=[];autosize=1;strokeColor=none;fillColor=none;" vertex="1" parent="1">
          <mxGeometry x="192" y="921" width="502" height="26" as="geometry" />
        </mxCell>
        <mxCell id="S-CoqvPqYbhsDH9ido7L-115" style="edgeStyle=orthogonalEdgeStyle;rounded=0;orthogonalLoop=1;jettySize=auto;html=1;curved=1;" edge="1" parent="1" source="S-CoqvPqYbhsDH9ido7L-107" target="S-CoqvPqYbhsDH9ido7L-108">
          <mxGeometry relative="1" as="geometry" />
        </mxCell>
        <mxCell id="S-CoqvPqYbhsDH9ido7L-117" value="if (lin.mtspr == 1)" style="edgeLabel;html=1;align=center;verticalAlign=middle;resizable=0;points=[];" vertex="1" connectable="0" parent="S-CoqvPqYbhsDH9ido7L-115">
          <mxGeometry x="-0.2389" relative="1" as="geometry">
            <mxPoint x="1" as="offset" />
          </mxGeometry>
        </mxCell>
        <mxCell id="S-CoqvPqYbhsDH9ido7L-125" style="edgeStyle=orthogonalEdgeStyle;rounded=0;orthogonalLoop=1;jettySize=auto;html=1;entryX=0;entryY=0.5;entryDx=0;entryDy=0;curved=1;" edge="1" parent="1" source="S-CoqvPqYbhsDH9ido7L-107" target="S-CoqvPqYbhsDH9ido7L-109">
          <mxGeometry relative="1" as="geometry" />
        </mxCell>
        <mxCell id="S-CoqvPqYbhsDH9ido7L-127" value="if r.ptb_valid = &#39;0&#39;" style="edgeLabel;html=1;align=center;verticalAlign=middle;resizable=0;points=[];" vertex="1" connectable="0" parent="S-CoqvPqYbhsDH9ido7L-125">
          <mxGeometry x="0.0205" y="5" relative="1" as="geometry">
            <mxPoint as="offset" />
          </mxGeometry>
        </mxCell>
        <mxCell id="S-CoqvPqYbhsDH9ido7L-138" style="edgeStyle=orthogonalEdgeStyle;rounded=0;orthogonalLoop=1;jettySize=auto;html=1;curved=1;" edge="1" parent="1">
          <mxGeometry relative="1" as="geometry">
            <mxPoint x="1170" y="510" as="targetPoint" />
            <mxPoint x="1230.0000354442452" y="180.00347826086963" as="sourcePoint" />
            <Array as="points">
              <mxPoint x="1170" y="180" />
            </Array>
          </mxGeometry>
        </mxCell>
        <mxCell id="S-CoqvPqYbhsDH9ido7L-139" value="if pt_valid = &#39;0&#39;" style="edgeLabel;html=1;align=center;verticalAlign=middle;resizable=0;points=[];" vertex="1" connectable="0" parent="S-CoqvPqYbhsDH9ido7L-138">
          <mxGeometry x="0.1759" relative="1" as="geometry">
            <mxPoint as="offset" />
          </mxGeometry>
        </mxCell>
        <mxCell id="S-CoqvPqYbhsDH9ido7L-146" style="edgeStyle=orthogonalEdgeStyle;rounded=0;orthogonalLoop=1;jettySize=auto;html=1;entryX=0;entryY=0.5;entryDx=0;entryDy=0;curved=1;" edge="1" parent="1" source="S-CoqvPqYbhsDH9ido7L-107" target="S-CoqvPqYbhsDH9ido7L-137">
          <mxGeometry relative="1" as="geometry">
            <Array as="points">
              <mxPoint x="980" y="150" />
              <mxPoint x="980" y="1080" />
            </Array>
          </mxGeometry>
        </mxCell>
        <mxCell id="S-CoqvPqYbhsDH9ido7L-148" value="if mbits = 0" style="edgeLabel;html=1;align=center;verticalAlign=middle;resizable=0;points=[];" vertex="1" connectable="0" parent="S-CoqvPqYbhsDH9ido7L-146">
          <mxGeometry x="-0.1322" y="-2" relative="1" as="geometry">
            <mxPoint y="-1" as="offset" />
          </mxGeometry>
        </mxCell>
        <mxCell id="S-CoqvPqYbhsDH9ido7L-151" style="edgeStyle=orthogonalEdgeStyle;rounded=0;orthogonalLoop=1;jettySize=auto;html=1;entryX=0;entryY=0.5;entryDx=0;entryDy=0;curved=1;" edge="1" parent="1" source="S-CoqvPqYbhsDH9ido7L-107" target="S-CoqvPqYbhsDH9ido7L-133">
          <mxGeometry relative="1" as="geometry">
            <Array as="points">
              <mxPoint x="920" y="140" />
              <mxPoint x="920" y="810" />
            </Array>
          </mxGeometry>
        </mxCell>
        <mxCell id="S-CoqvPqYbhsDH9ido7L-152" value="else condn 287" style="edgeLabel;html=1;align=center;verticalAlign=middle;resizable=0;points=[];" vertex="1" connectable="0" parent="S-CoqvPqYbhsDH9ido7L-151">
          <mxGeometry x="0.1205" y="-3" relative="1" as="geometry">
            <mxPoint as="offset" />
          </mxGeometry>
        </mxCell>
        <mxCell id="S-CoqvPqYbhsDH9ido7L-107" value="IDLE" style="ellipse;whiteSpace=wrap;html=1;" vertex="1" parent="1">
          <mxGeometry x="1210" y="110" width="120" height="80" as="geometry" />
        </mxCell>
        <mxCell id="S-CoqvPqYbhsDH9ido7L-120" style="edgeStyle=orthogonalEdgeStyle;rounded=0;orthogonalLoop=1;jettySize=auto;html=1;curved=1;" edge="1" parent="1" source="S-CoqvPqYbhsDH9ido7L-108" target="S-CoqvPqYbhsDH9ido7L-119">
          <mxGeometry relative="1" as="geometry" />
        </mxCell>
        <mxCell id="S-CoqvPqYbhsDH9ido7L-108" value="DO_TLBIE&lt;div&gt;&lt;br&gt;tlbie_req = 1&lt;div&gt;-- i_out.tlbie, dout_tlbie&lt;/div&gt;&lt;/div&gt;" style="ellipse;whiteSpace=wrap;html=1;" vertex="1" parent="1">
          <mxGeometry x="1320" y="260" width="120" height="80" as="geometry" />
        </mxCell>
        <mxCell id="S-CoqvPqYbhsDH9ido7L-128" style="edgeStyle=orthogonalEdgeStyle;rounded=0;orthogonalLoop=1;jettySize=auto;html=1;entryX=0.5;entryY=0;entryDx=0;entryDy=0;curved=1;" edge="1" parent="1" source="S-CoqvPqYbhsDH9ido7L-109" target="S-CoqvPqYbhsDH9ido7L-110">
          <mxGeometry relative="1" as="geometry" />
        </mxCell>
        <mxCell id="S-CoqvPqYbhsDH9ido7L-109" value="PART_TLB_READ&lt;div&gt;dcreq = &#39;1&#39;&lt;/div&gt;&lt;div&gt;ptb_rd = &#39;1&#39;&lt;/div&gt;" style="ellipse;whiteSpace=wrap;html=1;" vertex="1" parent="1">
          <mxGeometry x="1320" y="400" width="120" height="80" as="geometry" />
        </mxCell>
        <mxCell id="S-CoqvPqYbhsDH9ido7L-141" style="rounded=0;orthogonalLoop=1;jettySize=auto;html=1;entryX=1;entryY=0.5;entryDx=0;entryDy=0;edgeStyle=orthogonalEdgeStyle;curved=1;" edge="1" parent="1" source="S-CoqvPqYbhsDH9ido7L-110" target="S-CoqvPqYbhsDH9ido7L-111">
          <mxGeometry relative="1" as="geometry">
            <Array as="points">
              <mxPoint x="1510" y="610" />
            </Array>
          </mxGeometry>
        </mxCell>
        <mxCell id="S-CoqvPqYbhsDH9ido7L-110" value="PART_TLB_WAIT" style="ellipse;whiteSpace=wrap;html=1;" vertex="1" parent="1">
          <mxGeometry x="1450" y="510" width="120" height="80" as="geometry" />
        </mxCell>
        <mxCell id="S-CoqvPqYbhsDH9ido7L-140" style="edgeStyle=orthogonalEdgeStyle;rounded=0;orthogonalLoop=1;jettySize=auto;html=1;curved=1;" edge="1" parent="1" source="S-CoqvPqYbhsDH9ido7L-111" target="S-CoqvPqYbhsDH9ido7L-131">
          <mxGeometry relative="1" as="geometry">
            <Array as="points">
              <mxPoint x="1150" y="630" />
            </Array>
          </mxGeometry>
        </mxCell>
        <mxCell id="S-CoqvPqYbhsDH9ido7L-111" value="PART_TLB_DONE" style="ellipse;whiteSpace=wrap;html=1;" vertex="1" parent="1">
          <mxGeometry x="1280" y="570" width="120" height="80" as="geometry" />
        </mxCell>
        <mxCell id="S-CoqvPqYbhsDH9ido7L-118" value="292" style="text;html=1;align=center;verticalAlign=middle;resizable=0;points=[];autosize=1;strokeColor=none;fillColor=none;" vertex="1" parent="1">
          <mxGeometry x="1320" y="190" width="40" height="30" as="geometry" />
        </mxCell>
        <mxCell id="S-CoqvPqYbhsDH9ido7L-119" value="RADIX_FINISH" style="ellipse;whiteSpace=wrap;html=1;" vertex="1" parent="1">
          <mxGeometry x="1750" y="920" width="120" height="80" as="geometry" />
        </mxCell>
        <mxCell id="S-CoqvPqYbhsDH9ido7L-130" value="274, 277" style="text;html=1;align=center;verticalAlign=middle;resizable=0;points=[];autosize=1;strokeColor=none;fillColor=none;" vertex="1" parent="1">
          <mxGeometry x="1205" y="358" width="70" height="30" as="geometry" />
        </mxCell>
        <mxCell id="S-CoqvPqYbhsDH9ido7L-143" style="edgeStyle=orthogonalEdgeStyle;rounded=0;orthogonalLoop=1;jettySize=auto;html=1;curved=1;" edge="1" parent="1" source="S-CoqvPqYbhsDH9ido7L-131" target="S-CoqvPqYbhsDH9ido7L-132">
          <mxGeometry relative="1" as="geometry">
            <Array as="points">
              <mxPoint x="1030" y="550" />
              <mxPoint x="1030" y="710" />
            </Array>
          </mxGeometry>
        </mxCell>
        <mxCell id="S-CoqvPqYbhsDH9ido7L-131" value="PROC_TBL_READ" style="ellipse;whiteSpace=wrap;html=1;" vertex="1" parent="1">
          <mxGeometry x="1100" y="510" width="120" height="80" as="geometry" />
        </mxCell>
        <mxCell id="S-CoqvPqYbhsDH9ido7L-145" style="edgeStyle=orthogonalEdgeStyle;rounded=0;orthogonalLoop=1;jettySize=auto;html=1;entryX=0.5;entryY=0;entryDx=0;entryDy=0;curved=1;" edge="1" parent="1" source="S-CoqvPqYbhsDH9ido7L-132" target="S-CoqvPqYbhsDH9ido7L-133">
          <mxGeometry relative="1" as="geometry" />
        </mxCell>
        <mxCell id="S-CoqvPqYbhsDH9ido7L-132" value="PROC_TBL_WAIT" style="ellipse;whiteSpace=wrap;html=1;" vertex="1" parent="1">
          <mxGeometry x="1100" y="670" width="120" height="80" as="geometry" />
        </mxCell>
        <mxCell id="S-CoqvPqYbhsDH9ido7L-133" value="SEGMENT_CHECK" style="ellipse;whiteSpace=wrap;html=1;" vertex="1" parent="1">
          <mxGeometry x="1100" y="770" width="120" height="80" as="geometry" />
        </mxCell>
        <mxCell id="S-CoqvPqYbhsDH9ido7L-144" style="edgeStyle=orthogonalEdgeStyle;rounded=0;orthogonalLoop=1;jettySize=auto;html=1;" edge="1" parent="1" source="S-CoqvPqYbhsDH9ido7L-134" target="S-CoqvPqYbhsDH9ido7L-135">
          <mxGeometry relative="1" as="geometry" />
        </mxCell>
        <mxCell id="S-CoqvPqYbhsDH9ido7L-134" value="RADIX_LOOKUP" style="ellipse;whiteSpace=wrap;html=1;" vertex="1" parent="1">
          <mxGeometry x="1430" y="720" width="120" height="80" as="geometry" />
        </mxCell>
        <mxCell id="S-CoqvPqYbhsDH9ido7L-135" value="RADIX_READ_WAIT" style="ellipse;whiteSpace=wrap;html=1;" vertex="1" parent="1">
          <mxGeometry x="1530" y="900" width="120" height="80" as="geometry" />
        </mxCell>
        <mxCell id="S-CoqvPqYbhsDH9ido7L-136" value="RADIX_LOAD_TLB" style="ellipse;whiteSpace=wrap;html=1;" vertex="1" parent="1">
          <mxGeometry x="1250" y="880" width="120" height="80" as="geometry" />
        </mxCell>
        <mxCell id="S-CoqvPqYbhsDH9ido7L-137" value="RADIX_FINISH" style="ellipse;whiteSpace=wrap;html=1;" vertex="1" parent="1">
          <mxGeometry x="1310" y="1040" width="120" height="80" as="geometry" />
        </mxCell>
        <mxCell id="S-CoqvPqYbhsDH9ido7L-149" value="283" style="text;html=1;align=center;verticalAlign=middle;resizable=0;points=[];autosize=1;strokeColor=none;fillColor=none;" vertex="1" parent="1">
          <mxGeometry x="1000" y="520" width="40" height="30" as="geometry" />
        </mxCell>
      </root>
    </mxGraphModel>
  </diagram>
</mxfile>
